<svg width="24" height="24" viewBox="0 0 24 24" fill="none" xmlns="http://www.w3.org/2000/svg">
<path d="M1.16211 11.0203C1.16211 5.47494 5.65752 0.979492 11.2029 0.979492C16.5876 0.979492 20.9824 5.21819 21.2325 10.541C20.0393 9.76006 18.6129 9.30602 17.0805 9.30602C12.8876 9.30602 9.48866 12.705 9.48866 16.8979C9.48866 18.4303 9.9427 19.8567 10.7236 21.0499C9.00846 20.9692 7.40541 20.4581 6.02065 19.6221C5.001 20.0325 3.83057 20.4589 2.7597 20.7562C1.94813 20.9816 1.21677 20.284 1.42232 19.4608C1.69981 18.3495 2.12686 17.1483 2.55115 16.1189C1.66851 14.6243 1.16211 12.8811 1.16211 11.0203Z" fill="#1BA9A0"/>
<path d="M17.0795 10.7754C20.4608 10.7754 23.2019 13.5165 23.2019 16.8978C23.2019 18.0247 22.8972 19.0812 22.3657 19.9885C22.5621 20.4151 22.7551 20.8983 22.9106 21.4146C23.1587 22.2381 22.4094 22.9493 21.6004 22.6848C21.11 22.5245 20.6451 22.3356 20.2281 22.1496C19.3079 22.7025 18.2305 23.0203 17.0795 23.0203C13.6981 23.0203 10.957 20.2792 10.957 16.8978C10.957 13.5165 13.6981 10.7754 17.0795 10.7754Z" fill="white"/>
</svg>
