<svg width="48" height="39" viewBox="0 0 48 39" fill="none" xmlns="http://www.w3.org/2000/svg">
<path opacity="0.3" d="M31.3754 29.8715C27.8264 27.7989 28.9006 19.1965 30.9496 15.6068C32.9986 12.017 37.5367 10.7871 41.0857 12.8596C44.6347 14.9322 45.8507 19.5224 43.8017 23.1121C41.7526 26.7019 34.9244 31.944 31.3754 29.8715Z" fill="#F0623C"/>
<path opacity="0.6" d="M38.1707 27.9496C33.3937 30.7393 24.2027 23.6832 21.4446 18.8513C18.6866 14.0194 20.3233 7.84089 25.1004 5.0512C29.8774 2.2615 35.9858 3.91703 38.7439 8.74893C41.5019 13.5808 42.9478 25.1599 38.1707 27.9496Z" fill="#F0623C"/>
<path d="M40.491 24.8056C38.4142 32.6451 21.785 34.9496 14.0345 32.8491C6.28396 30.7485 1.68446 22.6904 3.76121 14.8509C5.83795 7.01142 13.8045 2.35911 21.555 4.4597C29.3055 6.56029 42.5677 16.9661 40.491 24.8056Z" fill="#F0623C"/>
<path d="M24.7687 14.7842C25.7492 14.7842 26.4442 14.9793 26.8535 15.3696C27.2724 15.76 27.4818 16.3502 27.4818 17.1403V17.8257C27.4818 18.6254 27.1772 19.2299 26.5679 19.6393C27.2248 20.0201 27.5532 20.6341 27.5532 21.4813V22.3096C27.5532 22.6904 27.5104 23.0331 27.4247 23.3377C27.339 23.6423 27.1963 23.9041 26.9963 24.1231C26.8059 24.3325 26.5489 24.4944 26.2252 24.6086C25.9016 24.7228 25.5017 24.7799 25.0257 24.7799H16.5436C16.258 24.7799 16.1152 24.6371 16.1152 24.3516V15.2126C16.1152 14.927 16.258 14.7842 16.5436 14.7842H24.7687ZM18.3 20.496V22.6237C18.3 22.7475 18.3619 22.8094 18.4857 22.8094H24.3403C24.7211 22.8094 24.9924 22.7427 25.1543 22.6094C25.3161 22.4666 25.397 22.2429 25.397 21.9383V21.3957C25.397 21.1006 25.3066 20.8768 25.1257 20.7245C24.9543 20.5722 24.6307 20.496 24.1547 20.496H18.3ZM18.3 18.9396H24.1547C24.6307 18.9396 24.9543 18.8682 25.1257 18.7254C25.2971 18.5826 25.3827 18.3731 25.3827 18.0971V17.6116C25.3827 17.3164 25.2971 17.1022 25.1257 16.969C24.9639 16.8262 24.6973 16.7548 24.326 16.7548H18.4857C18.3619 16.7548 18.3 16.8167 18.3 16.9404V18.9396Z" fill="white"/>
</svg>
