<svg width="24" height="24" viewBox="0 0 24 24" fill="none" xmlns="http://www.w3.org/2000/svg">
<path d="M19.1975 22.0509C20.3916 21.9309 21.2371 20.9765 21.3088 19.7786C21.4014 18.2335 21.5 15.7154 21.5 12C21.5 8.2846 21.4014 5.7665 21.3088 4.22142C21.2371 3.02348 20.3916 2.06911 19.1975 1.9491C18.1437 1.84319 16.6154 1.75 14.5 1.75C12.3846 1.75 10.8563 1.84319 9.80245 1.94911C8.6084 2.06911 7.7629 3.02348 7.69115 4.22142C7.5986 5.7665 7.5 8.2846 7.5 12C7.5 15.7154 7.5986 18.2335 7.69115 19.7786C7.7629 20.9765 8.6084 21.9309 9.80245 22.0509C10.8563 22.1568 12.3846 22.25 14.5 22.25C16.6154 22.25 18.1437 22.1568 19.1975 22.0509Z" fill="#1BA9A0"/>
<path fill-rule="evenodd" clip-rule="evenodd" d="M16 10.75C17.3807 10.75 18.5 9.6307 18.5 8.25C18.5 6.8693 17.3807 5.75 16 5.75C14.6193 5.75 13.5 6.8693 13.5 8.25C13.5 9.6307 14.6193 10.75 16 10.75ZM13.858 17.5879C13.8478 18.3143 13.8035 20.1312 13.6115 22.2443C12.8623 22.2345 12.1976 22.2126 11.611 22.1833V18.4283C11.611 18.313 11.5713 18.2014 11.4946 18.1153C11.2711 17.8645 10.7378 17.3013 10 16.75C10 16.75 9.132 17.5121 8.07985 18.2047C7.77705 18.4041 7.42085 18.5002 7.0584 18.4934C6.30355 18.4793 4.84733 18.435 3.14201 18.2959C2.82406 18.2699 2.55937 18.0422 2.52666 17.7249C2.50127 17.4785 2.48703 17.165 2.51635 16.8275C2.54614 16.4846 2.85254 16.2501 3.19668 16.2501H6.3632C6.5194 16.2501 6.6657 16.1784 6.7612 16.0548C7.21775 15.4638 8.671 13.6057 10.5 11.5L10.1213 11.1213C10.0427 11.0427 9.9402 10.9923 9.8298 10.9794C8.48125 10.8218 6.99435 10.7725 6.19575 10.7571C5.85165 10.7504 5.55325 10.5148 5.5215 10.1721C5.49835 9.9223 5.48805 9.61115 5.52085 9.279C5.5524 8.9595 5.82535 8.7326 6.14585 8.7135C7.0366 8.6604 8.9113 8.5809 10.7765 8.70435C11.1585 8.7296 11.5239 8.87295 11.8179 9.1181C13.4166 10.4509 14.5084 11.8366 14.8694 12.3205C14.9543 12.4343 15.0803 12.5103 15.2214 12.5264C16.5944 12.6826 18.1909 12.7297 19.0289 12.7439C19.3719 12.7497 19.6694 12.9839 19.701 13.3255C19.724 13.5742 19.7341 13.8847 19.701 14.2188C19.6693 14.5393 19.3959 14.7676 19.0744 14.7869C18.2093 14.839 16.4326 14.9158 14.746 14.8027C14.3324 14.7749 13.9432 14.6038 13.6306 14.3315L13.25 14L12.5 14.75C12.5 14.75 13.1586 15.4086 13.7443 16.9316C13.8249 17.1411 13.8612 17.3634 13.858 17.5879Z" fill="white"/>
</svg>
