<svg width="24" height="24" viewBox="0 0 24 24" fill="none" xmlns="http://www.w3.org/2000/svg">
<path d="M9.9646 2.17728C10.012 2.0596 10.083 1.9532 10.1899 1.88766C10.4307 1.74024 10.9796 1.5 12 1.5C13.0204 1.5 13.5693 1.74024 13.8101 1.88767C13.9171 1.9532 13.988 2.0596 14.0354 2.17728C14.199 2.58329 14.601 3.61665 14.8385 4.53883C15.5963 4.83838 16.2972 5.25435 16.92 5.7652C17.823 5.5134 18.9037 5.35115 19.3309 5.2925C19.4546 5.27555 19.5805 5.2849 19.6898 5.34655C19.9354 5.4853 20.414 5.84955 20.9242 6.75C21.4345 7.6504 21.5047 8.25485 21.4998 8.54105C21.4976 8.66825 21.4426 8.78405 21.3663 8.8847C21.103 9.2323 20.4251 10.1042 19.7598 10.7751C19.82 11.1744 19.8513 11.5835 19.8513 12C19.8513 12.4165 19.82 12.8256 19.7598 13.2249C20.4251 13.8957 21.103 14.7676 21.3663 15.1152C21.4426 15.216 21.4976 15.3317 21.4998 15.4589C21.5047 15.7451 21.4345 16.3496 20.9242 17.25C20.414 18.1504 19.9354 18.5147 19.6898 18.6534C19.5805 18.715 19.4546 18.7244 19.3309 18.7075C18.9037 18.6488 17.823 18.4866 16.92 18.2348C16.2973 18.7456 15.5964 19.1616 14.8385 19.4612C14.601 20.3834 14.199 21.4167 14.0354 21.8227C13.988 21.9404 13.9171 22.0468 13.8101 22.1124C13.5693 22.2598 13.0204 22.5 12 22.5C10.9796 22.5 10.4307 22.2598 10.1899 22.1124C10.083 22.0468 10.012 21.9404 9.9646 21.8227C9.80095 21.4167 9.399 20.3834 9.1615 19.4612C8.4036 19.1616 7.7027 18.7456 7.07995 18.2348C6.177 18.4866 5.09635 18.6488 4.66912 18.7075C4.54538 18.7244 4.41948 18.715 4.31028 18.6534C4.06459 18.5147 3.58597 18.1504 3.07577 17.25C2.56556 16.3496 2.49531 15.7451 2.50023 15.4589C2.50242 15.3317 2.5574 15.216 2.6337 15.1152C2.89707 14.7676 3.57486 13.8957 4.24016 13.2249C4.17994 12.8256 4.14871 12.4165 4.14871 12C4.14871 11.5835 4.17995 11.1744 4.24017 10.7751C3.57487 10.1042 2.89707 9.2323 2.6337 8.8847C2.5574 8.78405 2.50242 8.66825 2.50023 8.54105C2.49531 8.25485 2.56556 7.6504 3.07577 6.75C3.58597 5.84955 4.06459 5.4853 4.31028 5.34655C4.41948 5.2849 4.54538 5.27555 4.66912 5.2925C5.09635 5.35115 6.177 5.5134 7.08 5.7652C7.70275 5.25435 8.4036 4.83838 9.1615 4.53883C9.399 3.61665 9.80095 2.58329 9.9646 2.17728Z" fill="#1BA9A0"/>
<path d="M16 12C16 14.2092 14.2092 16 12 16C9.79085 16 8 14.2092 8 12C8 9.79085 9.79085 8 12 8C14.2092 8 16 9.79085 16 12Z" fill="white"/>
</svg>
